# xmcd CD database file
#
# Track frame offsets:
#	151
#	24982
#	50557
#	69576
#	108355
#	134056
#
# Disc length: 2268 seconds
#
# Revision: 0
# Processed by: cddbd v1.4PL0 Copyright (c) Steve Scherf et al.
# Submitted via: CDex 1.40Beta9
#
DISCID=5208da06
DTITLE=Tommy Bolin and Friends - Live at Ebetts Field (Alternative Takes)
DYEAR=1999
DGENRE=Blues
TTITLE0=You Know, You Know
TTITLE1=San Francisco River
TTITLE2=Jumpin at My Shadow
TTITLE3=Born Under A Bad Sign - Ain't No Sunshune
TTITLE4=You Used To Thrill Me
TTITLE5=Wang Dang Doodle
EXTD=YEAR: 1999 ID3G: 0
EXTT0=
EXTT1=
EXTT2=
EXTT3=
EXTT4=
EXTT5=
PLAYORDER=
